<?xml version="1.0" encoding="UTF-8" standalone="no"?>
<!-- Page 1 -->

<svg
   x="0"
   y="0"
   width="928.90002"
   height="1198.6"
   viewBox="0 0 928.90002 1198.6"
   version="1.1"
   style="display:block"
   id="svg76"
   sodipodi:docname="1.svg"
   inkscape:version="1.1.2 (b8e25be8, 2022-02-05)"
   xmlns:inkscape="http://www.inkscape.org/namespaces/inkscape"
   xmlns:sodipodi="http://sodipodi.sourceforge.net/DTD/sodipodi-0.dtd"
   xmlns="http://www.w3.org/2000/svg"
   xmlns:svg="http://www.w3.org/2000/svg">
  <sodipodi:namedview
     id="namedview78"
     pagecolor="#ffffff"
     bordercolor="#666666"
     borderopacity="1.0"
     inkscape:pageshadow="2"
     inkscape:pageopacity="0.0"
     inkscape:pagecheckerboard="0"
     showgrid="false"
     fit-margin-top="0"
     fit-margin-left="0"
     fit-margin-right="0"
     fit-margin-bottom="0"
     inkscape:zoom="0.45030303"
     inkscape:cx="403.06191"
     inkscape:cy="605.14805"
     inkscape:window-width="1680"
     inkscape:window-height="969"
     inkscape:window-x="0"
     inkscape:window-y="25"
     inkscape:window-maximized="0"
     inkscape:current-layer="svg76" />
  <defs
     id="defs14">
    <clipPath
       id="c_1">
      <path
         d="M 0,0 H 2933 V 1650 H 0 Z"
         id="path9" />
    </clipPath>
    <style
       type="text/css"
       id="style12"><![CDATA[

.g0{
fill: #D50B41;
}
.g1{
fill: none;
stroke: #FFFFFF;
stroke-width: 13.75;
stroke-linecap: butt;
stroke-linejoin: miter;
}
.g2{
fill: none;
stroke: #707070;
stroke-width: 0.763;
stroke-linecap: butt;
stroke-linejoin: miter;
}
.g3{
fill: none;
stroke: #080002;
stroke-width: 13.75;
stroke-linecap: butt;
stroke-linejoin: miter;
}
.g4{
fill: none;
stroke: #070000;
stroke-width: 13.75;
stroke-linecap: butt;
stroke-linejoin: miter;
}
.g5{
fill: none;
stroke: #707070;
stroke-width: 1.527;
stroke-linecap: butt;
stroke-linejoin: miter;
}
.g6{
fill: #0B0000;
}
.g7{
fill: #050000;
}
.g8{
fill: none;
stroke: #070000;
stroke-width: 10.694;
stroke-linecap: butt;
stroke-linejoin: miter;
}
.g9{
fill: none;
stroke: #0A0000;
stroke-width: 13.75;
stroke-linecap: butt;
stroke-linejoin: miter;
}
.ga{
fill: none;
stroke: #080000;
stroke-width: 13.75;
stroke-linecap: butt;
stroke-linejoin: miter;
}
.gb{
fill: none;
stroke: #0B0000;
stroke-width: 10.694;
stroke-linecap: butt;
stroke-linejoin: miter;
}
.gc{
fill: none;
stroke: #0B0000;
stroke-width: 13.75;
stroke-linecap: butt;
stroke-linejoin: miter;
}

]]></style>
  </defs>
  <g
     clip-path="url(#c_1)"
     id="g74"
     transform="translate(-1063.3,-219.2)">
    <path
       d="m 1507.7,219.2 c -365,996.6 -164.2,1017.9 -164.2,1017.9 h 382.7 c 0,0 53.5,-56.1 38.8,-229 -14.7,-172.9 -257.3,-788.9 -257.3,-788.9 z"
       class="g0"
       id="path18" />
    <path
       d="m 1400.2,498.8 h 253.6 m -113,-212.3 10.7,323.8 m -108.5,0 h 229.2 m -60.1,-111.5 c 10.1,349.2 3.3,572.7 36.3,673 33.2,100.6 106.2,76.7 106.2,76.7 M 1400.2,728 v 346.8 m -91.7,0 h 97.8 m -102.4,7.7 c 10.4,-160.8 72.2,-265.8 96.3,-354.4 m -61.1,190.9 427.8,-1.6 m -278.1,-418.6 4.6,418.6 m 0,6.1 c -56.1,223.7 -150.7,318.1 -150.7,318.1"
       class="g1"
       id="path20" />
    <path
       d="m 1234.8,917 h 0.8 v 0.8 h -0.8 z"
       class="g2"
       id="path22" />
    <path
       d="m 1258.9,916.7 c -87.4,-57.7 -195.6,146.6 -195.6,146.6 h 158.9 z"
       class="g0"
       id="path24" />
    <path
       d="m 1796.7,914.7 c 87.4,-57.7 195.5,146.7 195.5,146.7 h -158.9 z"
       class="g0"
       id="path26" />
    <path
       d="m 1300.6,1411.7 45.1,-98.4 11,-23.9"
       class="g3"
       id="path28" />
    <path
       d="m 1356.7,1295.6 25.7,60.1 10.9,25.4"
       class="g4"
       id="path30" />
    <path
       d="m 1368.9,1344.4 v 0"
       class="g5"
       id="path32" />
    <path
       d="m 1363.5,1368.1 h -22.8 c -1.3,0 -2.5,-0.6 -3.2,-1.7 -0.7,-1.1 -0.8,-2.4 -0.3,-3.6 l 11.4,-26.6 c 0.6,-1.4 1.9,-2.3 3.5,-2.3 1.5,0 2.9,0.9 3.5,2.3 l 11.4,26.6 c 0.5,1.2 0.4,2.5 -0.3,3.6 -0.8,1.1 -1.9,1.7 -3.2,1.7 z"
       class="g6"
       id="path34" />
    <path
       d="m 1352.1,1334.7 c -1.3,0 -2.3,0.7 -2.8,1.8 l -11.4,26.6 c -0.4,1 -0.3,2 0.2,2.9 0.6,0.9 1.6,1.4 2.6,1.4 h 22.8 c 1,0 1.9,-0.5 2.5,-1.4 0.6,-0.9 0.7,-1.9 0.3,-2.9 l -11.4,-26.6 c -0.5,-1.1 -1.6,-1.8 -2.8,-1.8 m 0,-1.5 c 1.7,0 3.4,0.9 4.2,2.7 l 11.4,26.6 c 1.3,3 -0.9,6.4 -4.2,6.4 h -22.8 c -3.3,0 -5.5,-3.4 -4.2,-6.4 l 11.4,-26.6 c 0.8,-1.8 2.5,-2.7 4.2,-2.7 z"
       class="g7"
       id="path36" />
    <path
       d="m 1399.4,1381.1 h -61.1"
       class="g8"
       id="path38" />
    <path
       d="m 1362.8,1381.1 v 0"
       class="g5"
       id="path40" />
    <path
       d="m 1442.2,1295.6 v 85.5"
       class="g9"
       id="path42" />
    <path
       d="m 1491.1,1307.8 -48.9,36.6"
       class="ga"
       id="path44" />
    <path
       d="m 1442.2,1332.2 48.9,48.9"
       class="g9"
       id="path46" />
    <path
       d="m 1527.8,1332.2 h 73.3"
       class="gb"
       id="path48" />
    <path
       d="m 1564.4,1332.2 v 85.6"
       class="gc"
       id="path50" />
    <path
       d="m 1442.2,1295.6 v 85.5"
       class="g9"
       id="path52" />
    <path
       d="m 1491.1,1307.8 -48.9,36.6 m 256.7,-36.6 -48.9,36.6"
       class="ga"
       id="path54" />
    <path
       d="m 1650,1295.6 v 85.5 m 0,-48.9 48.9,48.9"
       class="g9"
       id="path56" />
    <path
       d="m 1335,1412.3 c -1.2,2.3 -4.4,2.3 -5.5,0 l -7.3,-14.5 c -1,-2.1 0.5,-4.5 2.7,-4.5 h 14.6 c 2.3,0 3.7,2.4 2.7,4.5 z"
       class="g6"
       id="path58" />
    <path
       d="m 1332.2,1412.5 c 0.6,0 1.1,-0.3 1.4,-0.9 l 7.3,-14.5 c 0.3,-0.7 0,-1.3 -0.1,-1.5 -0.1,-0.2 -0.5,-0.7 -1.3,-0.7 h -14.6 c -0.7,0 -1.1,0.5 -1.3,0.7 -0.1,0.2 -0.4,0.8 0,1.5 l 7.3,14.5 c 0.2,0.6 0.7,0.9 1.3,0.9 m 0,1.5 c -1.1,0 -2.1,-0.6 -2.7,-1.7 l -7.3,-14.5 c -1,-2.1 0.5,-4.5 2.7,-4.5 h 14.6 c 2.3,0 3.7,2.4 2.7,4.5 l -7.2,14.5 c -0.6,1.1 -1.7,1.7 -2.8,1.7 z"
       class="g7"
       id="path60" />
    <path
       d="m 1383.8,1412.3 c -1.1,2.3 -4.3,2.3 -5.4,0 l -7.3,-14.5 c -1,-2.1 0.5,-4.5 2.7,-4.5 h 14.6 c 2.3,0 3.7,2.4 2.7,4.5 z"
       class="g6"
       id="path62" />
    <path
       d="m 1381.1,1412.5 c 0.6,0 1.1,-0.3 1.4,-0.9 l 7.3,-14.5 c 0.3,-0.7 0,-1.3 -0.1,-1.5 -0.1,-0.2 -0.5,-0.7 -1.3,-0.7 h -14.6 c -0.7,0 -1.1,0.5 -1.3,0.7 -0.1,0.2 -0.4,0.8 0,1.5 l 7.2,14.5 c 0.3,0.6 0.8,0.9 1.4,0.9 m 0,1.5 c -1.1,0 -2.2,-0.6 -2.7,-1.7 l -7.3,-14.5 c -1,-2.1 0.5,-4.5 2.7,-4.5 h 14.6 c 2.3,0 3.7,2.4 2.7,4.5 l -7.3,14.5 c -0.5,1.1 -1.6,1.7 -2.7,1.7 z"
       class="g7"
       id="path64" />
    <path
       d="m 1359.4,1412.3 c -1.1,2.3 -4.3,2.3 -5.5,0 l -7.2,-14.5 c -1.1,-2.1 0.4,-4.5 2.7,-4.5 h 14.5 c 2.3,0 3.8,2.4 2.8,4.5 z"
       class="g6"
       id="path66" />
    <path
       d="m 1356.7,1412.5 c 0.6,0 1.1,-0.3 1.3,-0.9 l 7.3,-14.5 c 0.4,-0.7 0.1,-1.3 -0.1,-1.5 -0.1,-0.2 -0.5,-0.7 -1.3,-0.7 h -14.5 c -0.8,0 -1.2,0.5 -1.3,0.7 -0.1,0.2 -0.4,0.8 -0.1,1.5 l 7.3,14.5 c 0.3,0.6 0.8,0.9 1.4,0.9 m 0,1.5 c -1.1,0 -2.2,-0.6 -2.8,-1.7 l -7.2,-14.5 c -1.1,-2.1 0.4,-4.5 2.7,-4.5 h 14.5 c 2.3,0 3.8,2.4 2.8,4.5 l -7.3,14.5 c -0.6,1.1 -1.6,1.7 -2.7,1.7 z"
       class="g7"
       id="path68" />
    <path
       d="m 1258.9,916.7 c -87.4,-57.7 -195.6,146.6 -195.6,146.6 h 158.9 z"
       class="g0"
       id="path70" />
    <path
       d="m 1258.9,916.7 c -87.4,-57.7 -195.6,146.6 -195.6,146.6 h 158.9 z"
       class="g0"
       id="path72" />
  </g>
</svg>
